<?xml version="1.0" encoding="UTF-8"?>
<svg width="25px" height="25px" viewBox="0 0 25 25" version="1.1" xmlns="http://www.w3.org/2000/svg" xmlns:xlink="http://www.w3.org/1999/xlink">
    <!-- Generator: Sketch 63.1 (92452) - https://sketch.com -->
    <title>icon/step_1 copy 3</title>
    <desc>Created with Sketch.</desc>
    <g id="icon/step_1-copy-3" stroke="none" stroke-width="1" fill="none" fill-rule="evenodd">
        <path d="M8,17 L14,17 L14,15 L8,15 L8,17 Z M8,9 L14,9 L14,7 L8,7 L8,9 Z M6,19 L16,19 L16,5 L6,5 L6,19 Z M16,3 L6,3 C4.9,3 4,3.9 4,5 L4,19 C4,20.1 4.9,21 6,21 L16,21 C17.1,21 18,20.1 18,19 L18,5 C18,3.9 17.1,3 16,3 L16,3 Z M8,13 L14,13 L14,11 L8,11 L8,13 Z" id="Fill-1" fill="#333333"></path>
        <circle id="Oval-2" fill="#FFFFFF" cx="16.5" cy="19.5" r="5.5"></circle>
        <path d="M15.6057334,22 C15.3774646,22 15.1615744,21.9127419 15.0227878,21.7630832 L13.1482775,19.7405479 C12.9044831,19.4774023 12.9679494,19.102827 13.2898965,18.9036249 C13.612368,18.7042514 14.0704791,18.756452 14.3142735,19.0193404 L15.5470926,20.3493828 L18.6479181,16.2815119 C18.8613955,16.0017376 19.3121634,15.9160224 19.6554057,16.0901957 C19.9981236,16.2645403 20.1028167,16.6331156 19.8893393,16.9131471 L16.2265488,21.7183399 C16.0993016,21.8853988 15.8796349,21.9904856 15.6390925,21.9994 C15.6278679,21.9998286 15.6167482,22 15.6057334,22" id="Fill-1" fill="#333333"></path>
    </g>
</svg>