<?xml version="1.0" encoding="UTF-8"?>
<svg width="25px" height="25px" viewBox="0 0 25 25" version="1.1" xmlns="http://www.w3.org/2000/svg" xmlns:xlink="http://www.w3.org/1999/xlink">
    <!-- Generator: Sketch 63.1 (92452) - https://sketch.com -->
    <title>icon/step_2 copy</title>
    <desc>Created with Sketch.</desc>
    <g id="icon/step_2-copy" stroke="none" stroke-width="1" fill="none" fill-rule="evenodd">
        <path d="M8,17 L14,17 L14,15 L8,15 L8,17 Z M8,9 L14,9 L14,7 L8,7 L8,9 Z M6,19 L16,19 L16,5 L6,5 L6,19 Z M16,3 L6,3 C4.9,3 4,3.9 4,5 L4,19 C4,20.1 4.9,21 6,21 L16,21 C17.1,21 18,20.1 18,19 L18,5 C18,3.9 17.1,3 16,3 L16,3 Z M8,13 L14,13 L14,11 L8,11 L8,13 Z" id="Fill-1-Copy" fill="#333333"></path>
        <circle id="Oval-2" fill="#FFFFFF" cx="16.5" cy="19.5" r="5.5"></circle>
        <path d="M17.6308838,15.6622381 L17.3485898,16.6215661 C17.075639,16.5412469 16.7908481,16.5 16.5,16.5 L16.5,15.5 C16.8866566,15.5 17.2664994,15.5550135 17.6308838,15.6622381 Z M19.547252,16.9087046 L18.7857253,17.5568381 C18.5994761,17.338004 18.3827301,17.1466334 18.1425527,16.9891414 L18.6909065,16.1528949 C19.0108144,16.3626689 19.299326,16.6174031 19.547252,16.9087046 Z M20.4691043,19.0008344 L19.4767833,19.1245233 C19.4410571,18.8379021 19.3644757,18.5604686 19.2499774,18.2987779 L20.1661237,17.8979339 C20.3190794,18.2475207 20.4214191,18.6182696 20.4691043,19.0008344 Z M20.0659294,21.3138691 L19.1749331,20.8598585 C19.3048133,20.6049683 19.3976073,20.3324195 19.449958,20.0490656 L20.4333159,20.2307446 C20.3633865,20.6092454 20.2393775,20.9734768 20.0659294,21.3138691 Z M18.4530908,22.9914829 L17.9641969,22.1191397 C18.2146752,21.9787622 18.4440296,21.8028699 18.6449705,21.5974055 L19.3599034,22.2965986 C19.0923914,22.5701326 18.7869529,22.8043741 18.4530908,22.9914829 Z M16.1751435,23.4869728 L16.2553938,22.490198 L16.4342815,22.4988782 C16.4673628,22.4995218 16.5030453,22.4997856 16.542781,22.4997022 C16.7497103,22.4968194 16.953468,22.473024 17.1520127,22.4290569 L17.3682213,23.4054041 C17.1033341,23.4640625 16.8318021,23.4957728 16.5509352,23.4996523 C16.3996312,23.5000121 16.2896249,23.4961897 16.1751435,23.4869728 Z M14.0603247,22.6700736 L14.6707144,21.8779724 C14.8981418,22.0532269 15.1494431,22.195114 15.4172236,22.2987937 L15.0561606,23.2313351 C14.6986488,23.0929131 14.3634309,22.9036459 14.0603247,22.6700736 Z M12.6864675,20.7101593 L13.6396958,20.407908 C13.7265379,20.6817872 13.8524971,20.9411601 14.0132422,21.1787335 L13.1850133,21.7391234 C12.9706263,21.42227 12.802472,21.0760098 12.6864675,20.7101593 Z M12.6394502,18.4496827 L13.6045142,18.711697 C13.552559,18.9030606 13.5197478,19.099595 13.5065908,19.3014266 L13.5007428,19.5675397 L12.5009851,19.5895536 L12.5000048,19.5058535 C12.5000048,19.1427089 12.5469858,18.790252 12.6394502,18.4496827 Z M13.8433789,16.509571 L14.5077634,17.256962 C14.2929893,17.4478829 14.1063456,17.6686631 13.9541067,17.9121567 L13.1061951,17.3820192 C13.3090119,17.0576303 13.5574823,16.7637155 13.8433789,16.509571 Z M15.9149536,15.5425464 L16.0601166,16.5319542 C15.7746167,16.5738419 15.4988912,16.6564472 15.239611,16.7766811 L14.8189204,15.869477 C15.1652579,15.7088726 15.5337477,15.5984758 15.9149536,15.5425464 Z" id="Oval-2-Copy" fill="#333333" fill-rule="nonzero"></path>
    </g>
</svg>