<?xml version="1.0" encoding="UTF-8"?>
<svg width="25px" height="25px" viewBox="0 0 25 25" version="1.1" xmlns="http://www.w3.org/2000/svg" xmlns:xlink="http://www.w3.org/1999/xlink">
    <!-- Generator: Sketch 63.1 (92452) - https://sketch.com -->
    <title>icon/link copy</title>
    <desc>Created with Sketch.</desc>
    <defs>
        <path d="M21.0208153,6.12132034 C22.5355762,7.63608123 22.581478,10.0634741 21.1585208,11.633546 L21.0208153,11.7781746 L16.7781746,16.0208153 C15.5165713,17.2824186 13.6218958,17.5251078 12.1167298,16.7488827 L9.56066017,19.3033009 C8.04589928,20.8180617 5.61850639,20.8639636 4.04843447,19.4410064 L3.90380592,19.3033009 L3.19669914,18.5961941 C1.68193825,17.0814332 1.63603641,14.6540403 3.05899361,13.0839684 L3.19669914,12.9393398 L7.43933983,8.69669914 C8.70120469,7.43483428 10.5964042,7.19230609 12.1017206,7.96911458 L14.6568542,5.41421356 C16.1716151,3.89945267 18.599008,3.85355083 20.16908,5.27650803 L20.3137085,5.41421356 L21.0208153,6.12132034 Z M8.96297681,10.0092473 L8.85355339,10.1109127 L4.6109127,14.3535534 C3.86536633,15.0990998 3.83147786,16.2868137 4.50924729,17.0725571 L4.6109127,17.1819805 L5.31801948,17.8890873 C6.06356586,18.6346337 7.25127977,18.6685221 8.03702319,17.9907527 L8.14644661,17.8890873 L10.5680195,15.4675144 L10.4142136,15.3137085 C8.89945267,13.7989476 8.85355083,11.3715547 10.276508,9.80148279 L10.4142136,9.65685425 L10.5284279,9.54208374 C9.9798187,9.47037467 9.40716728,9.62609585 8.96297681,10.0092473 Z M12.3890873,10.8180195 L12.2353773,10.6634309 L11.8284271,11.0710678 C11.0828807,11.8166142 11.0489923,13.0043281 11.7267617,13.7900715 L11.8284271,13.8994949 L11.982233,14.0533009 L12.3890873,13.6464466 C13.1701359,12.865398 13.1701359,11.5990681 12.3890873,10.8180195 Z M19.6066017,7.53553391 L18.8994949,6.82842712 C18.1539486,6.08288075 16.9662347,6.04899228 16.1804912,6.72676171 L16.0710678,6.82842712 L13.6495908,9.24921739 L13.8033009,9.40380592 C15.3180617,10.9185668 15.3639636,13.3459597 13.9410064,14.9160316 L13.8033009,15.0606602 L13.6892514,15.1754522 C14.2378105,15.2471086 14.8103916,15.0913802 15.2545376,14.7082671 L15.363961,14.6066017 L19.6066017,10.363961 C20.3876503,9.58291245 20.3876503,8.31658249 19.6066017,7.53553391 Z" id="path-1"></path>
    </defs>
    <g id="icon/link-copy" stroke="none" stroke-width="1" fill="none" fill-rule="evenodd">
        <mask id="mask-2" fill="white">
            <use xlink:href="#path-1"></use>
        </mask>
        <use id="Rectangle-Copy" fill="#5c9c00" fill-rule="nonzero" xlink:href="#path-1"></use>
    </g>
</svg>