<svg xmlns="http://www.w3.org/2000/svg" xmlns:xlink="http://www.w3.org/1999/xlink" width="25" height="26" viewBox="0 0 25 26">
    <defs>
        <path id="adxscddhra" d="M9 18h6v-2H9v2zm0-8h6V8H9v2zM7 20h10V6H7v14zM17 4H7c-1.1 0-2 .9-2 2v14c0 1.1.9 2 2 2h10c1.1 0 2-.9 2-2V6c0-1.1-.9-2-2-2zM9 14h6v-2H9v2z"/>
    </defs>
    <g fill="none" fill-rule="evenodd">
        <g>
            <g>
                <g>
                    <g transform="translate(-327 -339) translate(265 231) translate(49 99) translate(13 9.5)">
                        <mask id="jkdqzsuazb" fill="#fff">
                            <use xlink:href="#adxscddhra"/>
                        </mask>
                        <use fill="#707070" xlink:href="#adxscddhra"/>
                        <g fill="#565656" mask="url(#jkdqzsuazb)">
                            <path d="M0 0H25V25H0z"/>
                        </g>
                    </g>
                </g>
            </g>
        </g>
    </g>
</svg>
