<?xml version="1.0" encoding="UTF-8"?>
<svg width="25px" height="25px" viewBox="0 0 25 25" version="1.1" xmlns="http://www.w3.org/2000/svg" xmlns:xlink="http://www.w3.org/1999/xlink">
    <!-- Generator: Sketch 63.1 (92452) - https://sketch.com -->
    <title>icon/pencel copy 5</title>
    <desc>Created with Sketch.</desc>
    <defs>
        <path d="M21.5016126,8.37295448 L19.8808344,9.9937221 C19.7155924,10.158963 19.4483925,10.158963 19.2831505,9.9937221 L15.3806262,6.09122307 C15.2153841,5.92598212 15.2153841,5.65878399 15.3806262,5.49354304 L17.0014043,3.87277542 C17.6588566,3.21532739 18.7276561,3.21532739 19.3886241,3.87277542 L21.5016126,5.98575012 C22.1625806,6.64319816 22.1625806,7.71199068 21.5016126,8.37295448 Z M13.9883742,6.88578593 L4.75591569,16.1181845 L4.0105687,20.3898389 C3.90861085,20.9664243 4.4113685,21.4656629 4.98795768,21.3672215 L9.25963975,20.6183636 L18.4920983,11.385965 C18.6573403,11.220724 18.6573403,10.9535259 18.4920983,10.788285 L14.5895739,6.88578593 C14.4208161,6.72054498 14.1536162,6.72054498 13.9883742,6.88578593 Z M8.3595981,14.631016 L13.7739112,9.21673806 C13.9672795,9.02337099 14.2766688,9.02337099 14.4700371,9.21673806 C14.6634055,9.41010513 14.6634055,9.71949244 14.4700371,9.9128595 L9.05572406,15.3271374 C8.86235574,15.5205045 8.55296642,15.5205045 8.3595981,15.3271374 C8.16622977,15.1337704 8.16622977,14.8243831 8.3595981,14.631016 Z M7.09039873,18.2838957 L8.77797683,18.2838957 L8.77797683,19.5601184 L6.51029376,19.9573998 L5.41688378,18.8639969 L5.81416779,16.5963286 L7.09039873,16.5963286 L7.09039873,18.2838957 Z" id="path-1"></path>
    </defs>
    <g id="icon/pencel-copy-5" stroke="none" stroke-width="1" fill="none" fill-rule="evenodd">
        <mask id="mask-2" fill="white">
            <use xlink:href="#path-1"></use>
        </mask>
        <use id="Mask" fill="#B4B4B4" fill-rule="nonzero" xlink:href="#path-1"></use>
    </g>
</svg>