<svg xmlns="http://www.w3.org/2000/svg" xmlns:xlink="http://www.w3.org/1999/xlink" width="46" height="40" viewBox="0 0 46 40">
    <defs>
        <path id="prefix__a" d="M46.5 10v25.714C46.5 38.08 44.568 40 42.187 40H4.813C2.432 40 .5 38.08.5 35.714V10c0-2.366 1.932-4.286 4.313-4.286h7.906l1.105-2.937C14.453 1.107 16.06 0 17.858 0h11.275c1.797 0 3.405 1.107 4.034 2.777l1.114 2.937h7.907c2.38 0 4.312 1.92 4.312 4.286zM34.281 22.857c0-5.91-4.833-10.714-10.781-10.714s-10.781 4.803-10.781 10.714c0 5.91 4.833 10.714 10.781 10.714s10.781-4.803 10.781-10.714zm-2.875 0c0 4.33-3.549 7.857-7.906 7.857-4.357 0-7.906-3.526-7.906-7.857 0-4.33 3.549-7.857 7.906-7.857 4.357 0 7.906 3.527 7.906 7.857z"/>
    </defs>
    <g fill="none" fill-rule="evenodd" transform="translate(-.5)">
        <use fill="#FFF" xlink:href="#prefix__a"/>
    </g>
</svg>
