<svg xmlns="http://www.w3.org/2000/svg" width="30" height="33" viewBox="0 0 30 33">
    <path fill="#FFF" fill-rule="evenodd" d="M24.622 24.655c-4.458-1.648-5.883-3.037-5.883-6.012 0-1.786 1.361-1.203 1.959-4.473.248-1.357 1.45-.022 1.68-3.12 0-1.234-.656-1.54-.656-1.54s.333-1.827.464-3.233C22.348 4.526 21.188 0 15 0S7.652 4.526 7.814 6.277c.131 1.406.464 3.232.464 3.232s-.656.307-.656 1.542c.23 3.097 1.432 1.762 1.68 3.119.598 3.27 1.96 2.687 1.96 4.473 0 2.975-1.425 4.364-5.884 6.012C.906 26.307-2 27.99-2 29.14V33h34v-3.86c0-1.149-2.906-2.833-7.378-4.485"/>
</svg>
