<?xml version="1.0" encoding="UTF-8"?>
<svg width="25px" height="25px" viewBox="0 0 25 25" version="1.1" xmlns="http://www.w3.org/2000/svg" xmlns:xlink="http://www.w3.org/1999/xlink">
    <!-- Generator: Sketch 63.1 (92452) - https://sketch.com -->
    <title>icon/quick_menu_3 copy</title>
    <desc>Created with Sketch.</desc>
    <g id="icon/quick_menu_3-copy" stroke="none" stroke-width="1" fill="none" fill-rule="evenodd">
        <path d="M8,17 L14,17 L14,15 L8,15 L8,17 Z M8,9 L14,9 L14,7 L8,7 L8,9 Z M6,19 L16,19 L16,5 L6,5 L6,19 Z M16,3 L6,3 C4.9,3 4,3.9 4,5 L4,19 C4,20.1 4.9,21 6,21 L16,21 C17.1,21 18,20.1 18,19 L18,5 C18,3.9 17.1,3 16,3 L16,3 Z M8,13 L14,13 L14,11 L8,11 L8,13 Z" id="Fill-1" fill="#333333"></path>
        <circle id="Oval-2" fill="#FFFFFF" cx="16.5" cy="19.5" r="5.5"></circle>
        <rect id="Rectangle" fill="#333333" x="15.75" y="16" width="1.5" height="7"></rect>
        <rect id="Rectangle-Copy-19" fill="#333333" transform="translate(16.500000, 19.500000) rotate(-270.000000) translate(-16.500000, -19.500000) " x="15.75" y="16" width="1.5" height="7"></rect>
    </g>
</svg>