<?xml version="1.0" encoding="UTF-8"?>
<svg width="25px" height="25px" viewBox="0 0 25 25" version="1.1" xmlns="http://www.w3.org/2000/svg" xmlns:xlink="http://www.w3.org/1999/xlink">
    <!-- Generator: Sketch 63.1 (92452) - https://sketch.com -->
    <title>icon/quick_menu_5 copy</title>
    <desc>Created with Sketch.</desc>
    <g id="icon/quick_menu_5-copy" stroke="none" stroke-width="1" fill="none" fill-rule="evenodd">
        <path d="M11,2 C6.58171429,2 3,3.4106523 3,5.15068821 L3,6.65828845 C3,8.50388989 6.58171429,10 11,10 C15.4187429,10 19,8.50388989 19,6.65828845 L19,5.15068821 C19,3.4106523 15.4187429,2 11,2 M18.7001143,9.14806959 C17.7517714,10.4205954 14.6633143,11.3533589 11,11.3533589 C7.33714286,11.3533589 4.24822857,10.4205954 3.29988571,9.14806959 C3.10445714,8.88575623 3,9.02820314 3,9.14701442 L3,11.6327659 C3,13.4925951 6.58171429,15 11,15 C15.4187429,15 19,13.4925951 19,11.6327659 L19,9.14701442 C19,9.02820314 18.8955429,8.88575623 18.7001143,9.14806959 M18.6870857,14.1861972 C17.7232,15.745774 14.6468571,16.8860188 11,16.8860188 C7.3536,16.8860188 4.2768,15.745774 3.31337143,14.1861972 C3.10902857,13.8562648 3,14.0327775 3,14.1967148 L3,16.4854355 C3,18.7016763 6.58171429,21 11,21 C15.4187429,21 19,18.7016763 19,16.4854355 L19,14.1967148 C19,14.0327775 18.8909714,13.8562648 18.6870857,14.1861972" id="Fill-1" fill="#333333"></path>
        <circle id="Oval-2" fill="#FFFFFF" cx="16.5" cy="19.5" r="5.5"></circle>
        <path d="M13.8434538,18.7409787 C13.8434538,17.6929314 14.6930214,16.8433644 15.7408038,16.8433644 C16.7889407,16.8433644 17.7228626,17.7771969 17.7228626,18.8252442 C17.7228626,19.8732915 16.8732063,20.7228585 15.8251581,20.7228585 C14.7772871,20.7228585 13.8434538,19.789026 13.8434538,18.7409787 M19.8427058,21.9222471 L18.1685578,20.2481005 C18.4209116,19.8333296 18.5663163,19.3463438 18.5663163,18.8252442 C18.5663163,17.3116541 17.2546611,16 15.7408038,16 C14.2272124,16 13,17.2272113 13,18.7409787 C13,20.254746 14.3115666,21.5662229 15.8251581,21.5662229 C16.3285367,21.5662229 16.7998394,21.4299448 17.2051296,21.1931861 L18.8884928,22.8764593 C19.053214,23.0411802 19.3202766,23.0411802 19.4848206,22.8764593 L19.9023386,22.4590302 C20.0670597,22.2943092 20.0073384,22.0869681 19.8427058,21.9222471" id="Fill-1" fill="#333333"></path>
    </g>
</svg>