<?xml version="1.0" encoding="UTF-8"?>
<svg width="25px" height="25px" viewBox="0 0 25 25" version="1.1" xmlns="http://www.w3.org/2000/svg" xmlns:xlink="http://www.w3.org/1999/xlink">
    <!-- Generator: Sketch 63.1 (92452) - https://sketch.com -->
    <title>icon/quick_menu_6 copy</title>
    <desc>Created with Sketch.</desc>
    <g id="icon/quick_menu_6-copy" stroke="none" stroke-width="1" fill="none" fill-rule="evenodd">
        <path d="M8,17 L14,17 L14,15 L8,15 L8,17 Z M8,9 L14,9 L14,7 L8,7 L8,9 Z M6,19 L16,19 L16,5 L6,5 L6,19 Z M16,3 L6,3 C4.9,3 4,3.9 4,5 L4,19 C4,20.1 4.9,21 6,21 L16,21 C17.1,21 18,20.1 18,19 L18,5 C18,3.9 17.1,3 16,3 L16,3 Z M8,13 L14,13 L14,11 L8,11 L8,13 Z" id="Fill-1" fill="#333333"></path>
        <rect id="Rectangle" fill="#FFFFFF" x="11" y="14" width="13" height="10" rx="1"></rect>
        <path d="M21.49,20.01 L21.49,17 C21.49,16.4477 21.0423,16 20.49,16 L16,16 L17.2804,17.4 L20.0099,17.4 L20.0099,20.01 L19,20.01 L20.75,22 L22.5,20.01 L21.49,20.01 Z M14.99,20.6 L14.99,17.9901 L16,17.9901 L14.25,16 L12.5,17.9901 L13.51,17.9901 L13.51,21 C13.51,21.5524 13.9576,22 14.51,22 L19,22 L17.7195,20.6 L14.99,20.6 Z" id="Fill-1" fill="#333333"></path>
    </g>
</svg>