<?xml version="1.0" encoding="UTF-8"?>
<svg width="25px" height="25px" viewBox="0 0 25 25" version="1.1" xmlns="http://www.w3.org/2000/svg" xmlns:xlink="http://www.w3.org/1999/xlink">
    <!-- Generator: Sketch 63.1 (92452) - https://sketch.com -->
    <title>icon/refresh copy 8</title>
    <desc>Created with Sketch.</desc>
    <defs>
        <path d="M4.84923155,12.4051435 L9.03638999,15.1378535 L7.10300914,15.8410922 C8.07689481,17.9095295 10.1733617,19.2845287 12.5332718,19.2845287 C15.0130592,19.2845287 17.2044578,17.766247 18.1055142,15.5145663 L18.1912816,15.2869827 L20.0766798,15.9542708 C18.9550652,19.1233517 15.9496144,21.2845287 12.5332718,21.2845287 C9.32430475,21.2845287 6.48113545,19.3779743 5.21780101,16.5273642 L3.39823426,17.1899744 L4.84923155,12.4051435 Z M12.543408,4 C15.7523751,4 18.5955444,5.90655446 19.8588788,8.75716454 L21.6784455,8.09455433 L20.2274483,12.8793852 L16.0402898,10.1466752 L17.9736707,9.44343651 C16.999785,7.3749992 14.9033181,6 12.543408,6 C10.0636206,6 7.87222197,7.51828174 6.97116562,9.76996241 L6.88539824,9.99754607 L5,9.33025792 C6.12161457,6.16117702 9.12706539,4 12.543408,4 Z" id="path-1"></path>
    </defs>
    <g id="icon/refresh-copy-8" stroke="none" stroke-width="1" fill="none" fill-rule="evenodd">
        <mask id="mask-2" fill="white">
            <use xlink:href="#path-1"></use>
        </mask>
        <use id="Path" fill="#5c9c00" fill-rule="nonzero" xlink:href="#path-1"></use>
    </g>
</svg>