<?xml version="1.0" encoding="UTF-8"?>
<svg width="25px" height="25px" viewBox="0 0 25 25" version="1.1" xmlns="http://www.w3.org/2000/svg" xmlns:xlink="http://www.w3.org/1999/xlink">
    <!-- Generator: Sketch 63.1 (92452) - https://sketch.com -->
    <title>icon/search copy 2</title>
    <desc>Created with Sketch.</desc>
    <defs>
        <path d="M10,4 C13.8659932,4 17,7.13400675 17,11 C17,12.5683225 16.484239,14.0161826 15.6130783,15.1832189 L20.5355339,20.1058948 L19.1213203,21.5201083 L14.2011767,16.5996286 C13.0310504,17.478928 11.5763766,18 10,18 C6.13400675,18 3,14.8659932 3,11 C3,7.13400675 6.13400675,4 10,4 Z M10,6 C7.23857625,6 5,8.23857625 5,11 C5,13.7614237 7.23857625,16 10,16 C12.7614237,16 15,13.7614237 15,11 C15,8.23857625 12.7614237,6 10,6 Z" id="path-1"></path>
    </defs>
    <g id="icon/search-copy-2" stroke="none" stroke-width="1" fill="none" fill-rule="evenodd">
        <mask id="mask-2" fill="white">
            <use xlink:href="#path-1"></use>
        </mask>
        <use id="Path-3" fill="#FFF" fill-rule="nonzero" xlink:href="#path-1"></use>
    </g>
</svg>