<?xml version="1.0" encoding="UTF-8"?>
<svg width="25px" height="25px" viewBox="0 0 25 25" version="1.1" xmlns="http://www.w3.org/2000/svg" xmlns:xlink="http://www.w3.org/1999/xlink">
    <!-- Generator: Sketch 63.1 (92452) - https://sketch.com -->
    <title>icon/table copy</title>
    <desc>Created with Sketch.</desc>
    <defs>
        <path d="M22,16 L22,19 L8,19 L8,16 L22,16 Z M6,16 L6,19 L3,19 L3,16 L6,16 Z M6,11 L6,14 L3,14 L3,11 L6,11 Z M22,11 L22,14 L8,14 L8,11 L22,11 Z M6,6 L6,9 L3,9 L3,6 L6,6 Z M22,6 L22,9 L8,9 L8,6 L22,6 Z" id="path-1"></path>
    </defs>
    <g id="icon/table-copy" stroke="none" stroke-width="1" fill="none" fill-rule="evenodd">
        <mask id="mask-2" fill="white">
            <use xlink:href="#path-1"></use>
        </mask>
        <use id="Rectangle-Copy-7" fill="#5c9c00" xlink:href="#path-1"></use>
    </g>
</svg>