<?xml version="1.0" encoding="UTF-8"?>
<svg width="90px" height="87px" viewBox="0 0 90 87" version="1.1" xmlns="http://www.w3.org/2000/svg" xmlns:xlink="http://www.w3.org/1999/xlink">
    <!-- Generator: Sketch 63.1 (92452) - https://sketch.com -->
    <title>Group 2</title>
    <desc>Created with Sketch.</desc>
    <g id="Default_-기본화면-/-이용안내" stroke="none" stroke-width="1" fill="none" fill-rule="evenodd">
        <g id="이용안내---404" transform="translate(-670.000000, -393.000000)">
            <g id="Group-2" transform="translate(713.110913, 434.974874) rotate(-45.000000) translate(-713.110913, -434.974874) translate(641.610913, 363.974874)">
                <g id="Group-5" transform="translate(24.403806, 23.939340)" fill="#d7e5d0">
                    <rect id="Rectangle" transform="translate(47.430718, 9.365963) scale(-1, 1) rotate(360.000000) translate(-47.430718, -9.365963) " x="44.9307179" y="0.365963337" width="5" height="18" rx="2.5"></rect>
                    <rect id="Rectangle-Copy-6" transform="translate(47.284341, 90.172313) scale(-1, 1) rotate(540.000000) translate(-47.284341, -90.172313) " x="45.022046" y="81.1723125" width="4.52459016" height="18" rx="2.26229508"></rect>
                    <path d="M33.3958212,74.7837613 C34.643841,74.7871619 35.6547157,75.7980366 35.6581163,77.0460564 L35.6950015,90.5829417 C35.6983783,91.8222056 34.6964938,92.8295649 33.4572298,92.8329417 C33.4531537,92.8329528 33.4490776,92.8329528 33.4450015,92.8329417 C32.1969818,92.8295411 31.1861071,91.8186664 31.1827065,90.5706466 L31.1458212,77.0337613 C31.1424445,75.7944974 32.144329,74.7871381 33.383593,74.7837613 C33.387669,74.7837502 33.3917451,74.7837502 33.3958212,74.7837613 Z" id="Rectangle-Copy-7" transform="translate(33.420411, 83.808351) scale(-1, 1) rotate(135.000000) translate(-33.420411, -83.808351) "></path>
                    <path d="M62.7725451,75.3140914 C64.011809,75.3107147 65.0191684,76.3125992 65.0225451,77.5518632 C65.0225562,77.5559392 65.0225562,77.5600153 65.0225451,77.5640914 L64.9856598,91.1009767 C64.9822592,92.3489964 63.9713845,93.3598711 62.7233648,93.3632717 C61.4841008,93.3666485 60.4767415,92.3647639 60.4733648,91.1255 C60.4733537,91.1214239 60.4733537,91.1173478 60.4733648,91.1132717 L60.51025,77.5763865 C60.5136506,76.3283667 61.5245253,75.317492 62.7725451,75.3140914 Z" id="Rectangle-Copy-8" transform="translate(62.747955, 84.338682) scale(-1, 1) rotate(-135.000000) translate(-62.747955, -84.338682) "></path>
                    <path d="M61.2484337,6.63135888 C62.5023026,6.63649479 63.5174913,7.65168354 63.5226272,8.90555242 L63.5782906,22.4950504 C63.5833725,23.7357236 62.5817278,24.7456076 61.3410546,24.7506895 C61.3349202,24.7507146 61.3287858,24.7507146 61.3226515,24.7506895 C60.0687826,24.7455535 59.0535939,23.7303648 59.0484579,22.4764959 L58.9927946,8.88699797 C58.9877127,7.64632477 59.9893574,6.63644074 61.2300306,6.63135888 C61.2361649,6.63133375 61.2422994,6.63133375 61.2484337,6.63135888 Z" id="Rectangle-Copy-4" transform="translate(61.285543, 15.691024) scale(-1, 1) rotate(-45.000000) translate(-61.285543, -15.691024) "></path>
                    <path d="M31.8408607,6.09969964 C33.0815339,6.09461777 34.0914179,7.09626246 34.0964998,8.33693567 C34.0965249,8.34307 34.0965249,8.34920441 34.0964998,8.35533874 L34.0408364,21.9448367 C34.0357005,23.1987056 33.0205118,24.2138943 31.7666429,24.2190302 C30.5259697,24.2241121 29.5160857,23.2224674 29.5110038,21.9817942 C29.5109787,21.9756599 29.5109787,21.9695255 29.5110038,21.9633911 L29.5666671,8.37389319 C29.5718031,7.1200243 30.5869918,6.10483556 31.8408607,6.09969964 Z" id="Rectangle-Copy-5" transform="translate(31.803752, 15.159365) scale(-1, 1) rotate(-315.000000) translate(-31.803752, -15.159365) "></path>
                    <path d="M72.1151154,29.5246033 C83.5059883,29.5246033 92.7401154,38.7027659 92.7401154,50.0246033 C92.7401154,61.2332223 83.6897475,70.3408256 72.4561875,70.5218568 L72.1151154,70.5246033 L58.2401154,70.5246033 C55.9619408,70.5246033 54.1151154,68.6889707 54.1151154,66.4246033 C54.1151154,64.2154643 55.8729504,62.4144014 58.07421,62.3278588 L58.2401154,62.3246033 L72.1151154,62.3246033 C78.9496391,62.3246033 84.4901154,56.8177057 84.4901154,50.0246033 C84.4901154,43.3114197 79.0792364,37.8543553 72.3557896,37.726883 L72.1151154,37.7246033 L57.8651154,37.7246033 C55.5869408,37.7246033 53.7401154,35.8889707 53.7401154,33.6246033 C53.7401154,31.4154643 55.4979504,29.6144014 57.69921,29.5278588 L57.8651154,29.5246033 L72.1151154,29.5246033 Z" id="Path" fill-rule="nonzero"></path>
                    <path d="M18.375,29.5246033 C29.765873,29.5246033 39,38.7027659 39,50.0246033 C39,61.2332223 29.9496321,70.3408256 18.7160721,70.5218568 L18.375,70.5246033 L4.5,70.5246033 C2.22182541,70.5246033 0.375,68.6889707 0.375,66.4246033 C0.375,64.2154643 2.13283501,62.4144014 4.33409464,62.3278588 L4.5,62.3246033 L18.375,62.3246033 C25.2095238,62.3246033 30.75,56.8177057 30.75,50.0246033 C30.75,43.3114197 25.3391211,37.8543553 18.6156743,37.726883 L18.375,37.7246033 L4.125,37.7246033 C1.84682541,37.7246033 1.8189894e-12,35.8889707 1.8189894e-12,33.6246033 C1.8189894e-12,31.4154643 1.75783501,29.6144014 3.95909464,29.5278588 L4.125,29.5246033 L18.375,29.5246033 Z" id="Path-Copy" fill-rule="nonzero" transform="translate(19.500000, 50.024603) rotate(-180.000000) translate(-19.500000, -50.024603) "></path>
                </g>
                <g id="Group-4" transform="translate(77.767767, 109.830213) rotate(-180.000000) translate(-77.767767, -109.830213) translate(54.767767, 97.830213)"></g>
                <rect id="Rectangle" transform="translate(71.480970, 71.135516) rotate(45.000000) translate(-71.480970, -71.135516) " x="21.4809704" y="21.135516" width="100" height="100"></rect>
            </g>
        </g>
    </g>
</svg>